<mxfile host="app.diagrams.net" modified="2024-03-22T08:22:20.603Z" agent="Mozilla/5.0 (Windows NT 10.0; Win64; x64) AppleWebKit/537.36 (KHTML, like Gecko) Chrome/122.0.0.0 Safari/537.36" version="24.0.7" etag="XH3frxelyRQ1JHzpVCel" type="github">
  <diagram name="第 1 页" id="mdmKTRS3rtlkqnLzH0tU">
    <mxGraphModel>
      <root>
        <mxCell id="0" />
        <mxCell id="1" parent="0" />
      </root>
    </mxGraphModel>
  </diagram>
</mxfile>
